# Blender 5.2.0 LTS
# www.blender.org
o Sphere
v 0.000000 1.000000 0.000000
v 0.000000 0.707107 -0.707107
v 0.000000 0.000000 -1.000000
v 0.000000 -0.707107 -0.707107
v 0.000000 -1.000000 0.000000
v 0.612372 0.707107 -0.353553
v 0.866025 0.000000 -0.500000
v 0.612372 -0.707107 -0.353553
v 0.612372 0.707107 0.353553
v 0.866025 0.000000 0.500000
v 0.612372 -0.707107 0.353553
v -0.000000 0.707107 0.707107
v -0.000000 0.000000 1.000000
v -0.000000 -0.707107 0.707107
v -0.612373 0.707107 0.353553
v -0.866026 0.000000 0.500000
v -0.612373 -0.707107 0.353553
v -0.612372 0.707107 -0.353554
v -0.866025 0.000000 -0.500000
v -0.612372 -0.707107 -0.353554
vn 0.4706 -0.3377 -0.8152
vn 0.2157 0.9021 -0.3737
vn 0.2157 -0.9021 -0.3737
vn 0.4706 0.3377 -0.8152
vn 0.4315 0.9021 -0.0000
vn 0.4315 -0.9021 -0.0000
vn 0.9413 0.3377 -0.0000
vn 0.9413 -0.3377 -0.0000
vn 0.4706 -0.3377 0.8152
vn 0.2157 0.9021 0.3737
vn 0.2157 -0.9021 0.3737
vn 0.4706 0.3377 0.8152
vn -0.4706 -0.3377 0.8152
vn -0.2157 0.9021 0.3737
vn -0.2157 -0.9021 0.3737
vn -0.4706 0.3377 0.8152
vn -0.9413 -0.3377 -0.0000
vn -0.4315 0.9021 -0.0000
vn -0.4315 -0.9021 -0.0000
vn -0.9413 0.3377 -0.0000
vn -0.4706 -0.3377 -0.8152
vn -0.2157 0.9021 -0.3737
vn -0.2157 -0.9021 -0.3737
vn -0.4706 0.3377 -0.8152
vt 0.666667 0.500000
vt 0.500000 0.250000
vt 0.666667 0.250000
vt 0.666667 0.750000
vt 0.583333 1.000000
vt 0.500000 0.750000
vt 0.583333 0.000000
vt 0.500000 0.500000
vt 0.416667 1.000000
vt 0.333333 0.750000
vt 0.416667 0.000000
vt 0.333333 0.250000
vt 0.333333 0.500000
vt 0.166667 0.250000
vt 0.250000 1.000000
vt 0.166667 0.750000
vt 0.250000 0.000000
vt 0.166667 0.500000
vt 0.000000 0.250000
vt 0.083333 1.000000
vt 0.000000 0.750000
vt 0.083333 0.000000
vt 0.000000 0.500000
vt 1.000000 0.250000
vt 0.833333 0.500000
vt 0.833333 0.250000
vt 1.000000 0.750000
vt 0.916667 1.000000
vt 0.833333 0.750000
vt 0.916667 0.000000
vt 1.000000 0.500000
vt 0.750000 1.000000
vt 0.750000 0.000000
s 0
f 3/1/1 8/2/1 4/3/1
f 2/4/2 1/5/2 6/6/2
f 5/7/3 4/3/3 8/2/3
f 2/4/4 7/8/4 3/1/4
f 6/6/5 1/9/5 9/10/5
f 5/11/6 8/2/6 11/12/6
f 6/6/7 10/13/7 7/8/7
f 7/8/8 11/12/8 8/2/8
f 10/13/9 14/14/9 11/12/9
f 9/10/10 1/15/10 12/16/10
f 5/17/11 11/12/11 14/14/11
f 9/10/12 13/18/12 10/13/12
f 13/18/13 17/19/13 14/14/13
f 12/16/14 1/20/14 15/21/14
f 5/22/15 14/14/15 17/19/15
f 12/16/16 16/23/16 13/18/16
f 17/24/17 19/25/17 20/26/17
f 15/27/18 1/28/18 18/29/18
f 5/30/19 17/24/19 20/26/19
f 15/27/20 19/25/20 16/31/20
f 19/25/21 4/3/21 20/26/21
f 18/29/22 1/32/22 2/4/22
f 5/33/23 20/26/23 4/3/23
f 19/25/24 2/4/24 3/1/24
f 3/1/1 7/8/1 8/2/1
f 2/4/4 6/6/4 7/8/4
f 6/6/7 9/10/7 10/13/7
f 7/8/8 10/13/8 11/12/8
f 10/13/9 13/18/9 14/14/9
f 9/10/12 12/16/12 13/18/12
f 13/18/13 16/23/13 17/19/13
f 12/16/16 15/21/16 16/23/16
f 17/24/17 16/31/17 19/25/17
f 15/27/20 18/29/20 19/25/20
f 19/25/21 3/1/21 4/3/21
f 19/25/24 18/29/24 2/4/24
